<svg xmlns="http://www.w3.org/2000/svg" width="39.937" height="44.092" viewBox="0 0 39.937 44.092">
  <g id="_897222_get_fit_lean_lose_weight_weight_scales_icon_1_" data-name="897222_get fit_lean_lose_weight_weight scales_icon (1)" transform="translate(1 1)">
    <path id="Path_25" data-name="Path 25" d="M41.621,12.555A18.037,18.037,0,0,0,29.969,8.4a18.737,18.737,0,0,0-11.652,4.155H13.71A2.661,2.661,0,0,0,11,15.265V47.783a2.661,2.661,0,0,0,2.71,2.71H46.228a2.661,2.661,0,0,0,2.71-2.71V15.265a2.661,2.661,0,0,0-2.71-2.71Z" transform="translate(-11 -8.4)" fill="#2980ba"/>
    <path id="Path_26" data-name="Path 26" d="M29.607,8.4a18.27,18.27,0,0,0-11.291,4.155H13.71A2.661,2.661,0,0,0,11,15.265V47.783a2.661,2.661,0,0,0,2.71,2.71h15.9Z" transform="translate(-11 -8.4)" fill="#3b97d3"/>
    <path id="Path_27" data-name="Path 27" d="M41.621,12.555A18.037,18.037,0,0,0,29.969,8.4a18.737,18.737,0,0,0-11.652,4.155H13.71A2.661,2.661,0,0,0,11,15.265V47.783a2.661,2.661,0,0,0,2.71,2.71H46.228a2.661,2.661,0,0,0,2.71-2.71V15.265a2.661,2.661,0,0,0-2.71-2.71Z" transform="translate(-11 -8.4)" fill="none" stroke="#2c3e50" stroke-linecap="round" stroke-linejoin="round" stroke-miterlimit="10" stroke-width="2"/>
    <path id="Path_28" data-name="Path 28" d="M30.623,13.4A14.667,14.667,0,0,0,18.7,19.542l5.871,4.607,12.1-.181,5.781-4.7A14.886,14.886,0,0,0,30.623,13.4Z" transform="translate(-11.745 -8.884)" fill="#e5e5e5"/>
    <path id="Path_29" data-name="Path 29" d="M30.623,13.4A14.667,14.667,0,0,0,18.7,19.542l5.871,4.607,12.1-.181,5.781-4.7A14.886,14.886,0,0,0,30.623,13.4Z" transform="translate(-11.745 -8.884)" fill="none" stroke="#2c3e50" stroke-linecap="round" stroke-linejoin="round" stroke-miterlimit="10" stroke-width="2"/>
    <line id="Line_18" data-name="Line 18" y1="4.516" transform="translate(18.969 7.768)" fill="none" stroke="#2c3e50" stroke-linecap="round" stroke-linejoin="round" stroke-miterlimit="10" stroke-width="2"/>
    <line id="Line_19" data-name="Line 19" y1="21.678" transform="translate(18.969 20.414)" fill="none" stroke="#2c3e50" stroke-linecap="round" stroke-linejoin="round" stroke-miterlimit="10" stroke-width="2" stroke-dasharray="0 3"/>
    <circle id="Ellipse_4" data-name="Ellipse 4" cx="0.903" cy="0.903" r="0.903" transform="translate(18.066 13.188)" fill="none" stroke="#2c3e50" stroke-linecap="round" stroke-linejoin="round" stroke-miterlimit="10" stroke-width="2"/>
    <circle id="Ellipse_5" data-name="Ellipse 5" cx="0.903" cy="0.903" r="0.903" transform="translate(2.71 37.576)" fill="#2c3e50"/>
    <circle id="Ellipse_6" data-name="Ellipse 6" cx="0.903" cy="0.903" r="0.903" transform="translate(33.421 37.576)" fill="#2c3e50"/>
  </g>
</svg>
